<?xml version="1.0" encoding="utf-8"?>
<!-- Generator: Adobe Illustrator 16.0.0, SVG Export Plug-In . SVG Version: 6.00 Build 0)  -->
<!DOCTYPE svg PUBLIC "-//W3C//DTD SVG 1.1//EN" "http://www.w3.org/Graphics/SVG/1.1/DTD/svg11.dtd">
<svg version="1.1" id="Layer_1" xmlns="http://www.w3.org/2000/svg" xmlns:xlink="http://www.w3.org/1999/xlink" x="0px" y="0px"
	 width="388.779px" height="153.17px" viewBox="0 0 388.779 153.17" enable-background="new 0 0 388.779 153.17"
	 xml:space="preserve">
<g>
	<g>
		<path fill="#FFFFFF" d="M24.157,44.596c0-4.896-0.674-8.519-2.017-10.872c-1.346-2.352-4.032-3.528-8.063-3.528h-1.44v-4.32h39.6
			c9.888,0,18.84,1.944,26.856,5.832C87.107,35.596,91.117,43.3,91.117,54.82c0,7.488-2.089,13.298-6.265,17.424
			c-4.176,4.128-8.855,6.864-14.04,8.208c-5.184,1.346-9.936,2.016-14.256,2.016h-13.68v38.449h-18.72V44.596z M51.517,76.708
			c5.663,0,10.318-1.728,13.968-5.184c3.647-3.456,5.473-9.263,5.473-17.424c0-8.064-1.8-13.824-5.4-17.28
			c-3.6-3.456-8.042-5.184-13.32-5.184c-2.784,0-4.944,0.193-6.479,0.576l-2.88,0.432v44.063L51.517,76.708L51.517,76.708z"/>
	</g>
	<g>
		<path fill="#FFFFFF" d="M135.695,44.596c0-4.896-0.673-8.519-2.016-10.872c-1.346-2.352-4.032-3.528-8.064-3.528h-1.439v-4.32
			h39.168c19.39,0,34.15,4.104,44.28,12.312c10.128,8.208,15.191,19.753,15.191,34.632c0,9.505-2.138,17.881-6.408,25.128
			c-4.272,7.25-10.608,12.889-19.008,16.92c-8.401,4.031-18.504,6.049-30.312,6.049h-31.393V44.596L135.695,44.596z
			 M166.655,115.157c6.719,0,12.694-1.68,17.929-5.041c5.23-3.359,9.311-8.207,12.239-14.545c2.929-6.336,4.394-13.727,4.394-22.175
			c0-8.352-1.465-15.671-4.394-21.96c-2.93-6.287-7.033-11.16-12.312-14.616c-5.281-3.456-11.329-5.184-18.144-5.184h-1.152
			c-3.168,0-5.713,0.193-7.632,0.576l-3.168,0.432v81.503l3.168,0.576c2.016,0.289,4.559,0.434,7.632,0.434H166.655z"/>
	</g>
	<g>
		<path fill="#FFFFFF" d="M290.642,119.261c-1.824-1.104-3.12-2.976-3.888-5.617c-0.771-2.64-1.151-6.455-1.151-11.447v-76.32h18.72
			v76.32c0,4.896,0.672,8.521,2.017,10.871c1.343,2.354,4.032,3.529,8.062,3.529h1.441v4.319h-17.281
			C295.106,120.917,292.464,120.364,290.642,119.261z"/>
	</g>
	<g>
		<path fill="#FFFFFF" d="M59.984,115.616c0-0.34-0.047-0.592-0.14-0.756c-0.093-0.162-0.28-0.244-0.56-0.244h-0.101v-0.301h2.75
			c0.688,0,1.31,0.137,1.865,0.406c0.556,0.268,0.835,0.805,0.835,1.604c0,0.521-0.146,0.923-0.435,1.209
			c-0.29,0.286-0.615,0.478-0.976,0.569c-0.36,0.094-0.689,0.142-0.99,0.142h-0.949v2.67h-1.301V115.616z M61.884,117.847
			c0.393,0,0.716-0.121,0.97-0.361c0.253-0.238,0.38-0.644,0.38-1.209c0-0.562-0.125-0.961-0.375-1.199
			c-0.25-0.24-0.559-0.361-0.925-0.361c-0.192,0-0.343,0.014-0.45,0.041l-0.199,0.029v3.061H61.884L61.884,117.847z"/>
		<path fill="#FFFFFF" d="M65.754,115.616c0-0.34-0.047-0.592-0.141-0.756c-0.093-0.162-0.279-0.244-0.56-0.244h-0.1v-0.301h4.409
			c0.566,0,0.851,0.268,0.851,0.801v0.85h-0.3c0-0.412-0.105-0.716-0.315-0.908c-0.21-0.193-0.521-0.291-0.935-0.291h-1.61v2.5h2.6
			v0.449h-2.6v2.75h1.71c0.38,0,0.697-0.084,0.95-0.254s0.463-0.465,0.63-0.885l0.27,0.1l-0.289,0.789
			c-0.088,0.24-0.19,0.418-0.311,0.531s-0.307,0.17-0.56,0.17h-3.7V115.616z"/>
		<path fill="#FFFFFF" d="M75.404,120.69c-0.3-0.215-0.613-0.59-0.939-1.125l-1-1.67h-0.4v3.021h-1.31v-5.301
			c0-0.34-0.047-0.592-0.141-0.756c-0.093-0.162-0.279-0.244-0.56-0.244h-0.1v-0.301h2.76c0.693,0,1.315,0.127,1.87,0.381
			c0.554,0.254,0.83,0.74,0.83,1.461c0,0.832-0.54,1.387-1.62,1.658l1.05,1.75c0.393,0.66,0.807,1.026,1.24,1.102v0.25
			c-0.054,0.025-0.15,0.049-0.29,0.068c-0.141,0.021-0.271,0.031-0.391,0.031C76.038,121.017,75.704,120.908,75.404,120.69z
			 M73.664,117.497c0.374,0,0.691-0.111,0.955-0.336c0.263-0.223,0.395-0.574,0.395-1.055c0-0.474-0.13-0.823-0.39-1.051
			c-0.261-0.227-0.563-0.341-0.91-0.341c-0.193,0-0.344,0.015-0.45,0.041l-0.2,0.029v2.711L73.664,117.497L73.664,117.497z"/>
		<path fill="#FFFFFF" d="M78.614,120.94c-0.347-0.096-0.63-0.235-0.85-0.42c-0.22-0.183-0.33-0.396-0.33-0.635v-1.171h0.28
			c0.1,0.681,0.31,1.171,0.63,1.472c0.32,0.299,0.767,0.449,1.34,0.449c0.386,0,0.693-0.082,0.92-0.25
			c0.228-0.166,0.34-0.406,0.34-0.72c0-0.269-0.083-0.494-0.25-0.681c-0.167-0.188-0.427-0.391-0.779-0.61l-1.23-0.739
			c-0.447-0.261-0.765-0.529-0.955-0.81c-0.189-0.281-0.285-0.606-0.285-0.979c0-0.527,0.202-0.943,0.605-1.25
			c0.403-0.308,0.948-0.461,1.635-0.461c0.373,0,0.733,0.049,1.08,0.146c0.347,0.096,0.63,0.236,0.85,0.42
			c0.221,0.184,0.33,0.395,0.33,0.635v1.17h-0.279c-0.114-0.68-0.324-1.17-0.63-1.471c-0.308-0.301-0.721-0.449-1.24-0.449
			c-0.36,0-0.646,0.086-0.855,0.26s-0.314,0.41-0.314,0.711c0,0.26,0.082,0.476,0.245,0.646c0.164,0.17,0.429,0.36,0.795,0.573
			l1.229,0.73c0.466,0.273,0.801,0.538,1.005,0.795c0.203,0.256,0.306,0.564,0.306,0.926c0,0.58-0.22,1.035-0.655,1.363
			c-0.438,0.33-1.055,0.496-1.855,0.496C79.32,121.086,78.96,121.038,78.614,120.94z"/>
		<path fill="#FFFFFF" d="M84.519,120.657c-0.503-0.307-0.892-0.727-1.165-1.262c-0.272-0.533-0.41-1.125-0.41-1.779
			c0-0.652,0.137-1.246,0.41-1.779c0.274-0.533,0.662-0.953,1.165-1.26s1.079-0.461,1.726-0.461c0.646,0,1.22,0.154,1.72,0.461
			s0.886,0.727,1.16,1.26c0.273,0.533,0.41,1.127,0.41,1.779c0,0.654-0.138,1.246-0.41,1.779c-0.273,0.535-0.66,0.955-1.16,1.262
			c-0.5,0.306-1.074,0.459-1.72,0.459C85.598,121.116,85.022,120.962,84.519,120.657z M87.654,119.872
			c0.333-0.531,0.5-1.282,0.5-2.256c0-0.973-0.167-1.725-0.5-2.256c-0.333-0.529-0.804-0.795-1.409-0.795
			c-0.606,0-1.075,0.266-1.405,0.795c-0.33,0.531-0.495,1.283-0.495,2.256c0,0.974,0.165,1.725,0.495,2.256
			c0.33,0.529,0.798,0.795,1.405,0.795C86.851,120.667,87.32,120.401,87.654,119.872z"/>
		<path fill="#FFFFFF" d="M91.324,115.965v4.951h-0.5v-5.399c0-0.281-0.068-0.5-0.205-0.66c-0.138-0.16-0.368-0.24-0.695-0.24h-0.05
			v-0.301h0.7c0.373,0,0.678,0.049,0.914,0.146c0.236,0.096,0.436,0.248,0.596,0.455l3.439,4v-4.602h0.5v6.631h-0.46L91.324,115.965
			z"/>
		<path fill="#FFFFFF" d="M101.904,120.69c-0.34-0.176-0.616-0.521-0.829-1.033l-0.23-0.561h-2.66l-0.82,1.819h-0.52l2.95-6.601
			h0.45l2.239,5.34c0.253,0.619,0.601,0.953,1.04,1v0.25c-0.12,0.033-0.279,0.05-0.479,0.05
			C102.624,120.956,102.244,120.868,101.904,120.69z M98.394,118.646h2.26l-1.1-2.609L98.394,118.646z"/>
		<path fill="#FFFFFF" d="M104.184,115.616c0-0.34-0.047-0.592-0.14-0.756c-0.093-0.162-0.28-0.244-0.561-0.244h-0.1v-0.301h1.2
			c0.24,0,0.423,0.041,0.55,0.121s0.217,0.211,0.27,0.395c0.054,0.184,0.08,0.445,0.08,0.785v4.85h3.45v0.451h-4.75V115.616z"/>
	</g>
	<g>
		<path fill="#FFFFFF" d="M322.001,120.801c-0.127-0.075-0.217-0.206-0.271-0.391c-0.055-0.185-0.08-0.447-0.08-0.796v-5.299h1.3
			v5.299c0,0.341,0.047,0.593,0.141,0.757c0.094,0.163,0.279,0.243,0.561,0.243h0.101v0.302h-1.2
			C322.312,120.917,322.128,120.877,322.001,120.801z"/>
		<path fill="#FFFFFF" d="M325.381,115.965v4.951h-0.5v-5.399c0-0.281-0.068-0.5-0.205-0.66s-0.368-0.24-0.694-0.24h-0.051v-0.301
			h0.7c0.374,0,0.679,0.049,0.915,0.146c0.236,0.096,0.436,0.248,0.596,0.455l3.439,4v-4.602h0.5v6.631h-0.46L325.381,115.965z"/>
		<path fill="#FFFFFF" d="M332.47,120.94c-0.346-0.096-0.629-0.235-0.85-0.42c-0.221-0.183-0.33-0.396-0.33-0.635v-1.171h0.279
			c0.102,0.681,0.311,1.171,0.631,1.472c0.319,0.299,0.767,0.449,1.34,0.449c0.387,0,0.692-0.082,0.92-0.25
			c0.227-0.166,0.34-0.406,0.34-0.72c0-0.269-0.083-0.494-0.25-0.681c-0.166-0.188-0.426-0.391-0.779-0.61l-1.229-0.739
			c-0.446-0.261-0.766-0.529-0.955-0.81c-0.189-0.281-0.285-0.606-0.285-0.979c0-0.527,0.202-0.943,0.605-1.25
			c0.402-0.308,0.947-0.461,1.635-0.461c0.373,0,0.732,0.049,1.08,0.146c0.347,0.096,0.631,0.236,0.85,0.42
			c0.221,0.184,0.33,0.395,0.33,0.635v1.17h-0.279c-0.112-0.68-0.323-1.17-0.631-1.471c-0.307-0.301-0.719-0.449-1.239-0.449
			c-0.359,0-0.646,0.086-0.854,0.26c-0.211,0.174-0.315,0.41-0.315,0.711c0,0.26,0.081,0.476,0.245,0.646
			c0.163,0.17,0.428,0.36,0.795,0.573l1.23,0.73c0.466,0.273,0.801,0.538,1.004,0.795c0.203,0.256,0.306,0.564,0.306,0.926
			c0,0.58-0.219,1.035-0.654,1.363c-0.438,0.33-1.056,0.496-1.855,0.496C333.177,121.086,332.817,121.038,332.47,120.94z"/>
		<path fill="#FFFFFF" d="M338.751,114.767h-0.711c-0.373,0-0.658,0.094-0.854,0.278c-0.196,0.188-0.295,0.494-0.295,0.92h-0.3
			v-0.851c0-0.532,0.283-0.799,0.85-0.799h4.7v0.449h-2.09v6.15h-1.3V114.767L338.751,114.767z"/>
		<path fill="#FFFFFF" d="M343.321,120.801c-0.127-0.075-0.217-0.206-0.271-0.391s-0.08-0.447-0.08-0.796v-5.299h1.3v5.299
			c0,0.341,0.047,0.593,0.142,0.757c0.093,0.163,0.278,0.243,0.56,0.243h0.101v0.302h-1.2
			C343.631,120.917,343.447,120.877,343.321,120.801z"/>
		<path fill="#FFFFFF" d="M347.54,114.767h-0.71c-0.374,0-0.658,0.094-0.854,0.278c-0.197,0.188-0.295,0.494-0.295,0.92h-0.301
			v-0.851c0-0.532,0.283-0.799,0.85-0.799h4.701v0.449h-2.09v6.15h-1.301V114.767z"/>
		<path fill="#FFFFFF" d="M351.89,118.036v-2.42c0-0.34-0.047-0.592-0.14-0.756c-0.094-0.162-0.28-0.244-0.561-0.244v-0.301h1.101
			c0.239,0,0.424,0.041,0.551,0.121c0.126,0.08,0.216,0.211,0.27,0.395s0.08,0.445,0.08,0.785l0.011,2.721
			c0.006,0.707,0.145,1.254,0.415,1.645c0.27,0.392,0.66,0.586,1.175,0.586c0.68,0,1.176-0.203,1.484-0.604
			c0.311-0.403,0.465-1.045,0.465-1.926v-3.72h0.5v3.72c0,0.979-0.205,1.724-0.619,2.226c-0.414,0.504-1.091,0.756-2.029,0.756
			C352.79,121.017,351.89,120.022,351.89,118.036z"/>
		<path fill="#FFFFFF" d="M360.229,114.767h-0.709c-0.374,0-0.658,0.094-0.854,0.278c-0.197,0.188-0.295,0.494-0.295,0.92h-0.301
			v-0.851c0-0.532,0.283-0.799,0.851-0.799h4.7v0.449h-2.091v6.15h-1.301V114.767z"/>
		<path fill="#FFFFFF" d="M364.61,115.616c0-0.34-0.047-0.592-0.141-0.756c-0.093-0.162-0.279-0.244-0.56-0.244h-0.102v-0.301h4.41
			c0.566,0,0.851,0.268,0.851,0.801v0.85h-0.3c0-0.412-0.104-0.716-0.314-0.908c-0.21-0.193-0.521-0.291-0.936-0.291h-1.609v2.5
			h2.601v0.449h-2.601v2.75h1.71c0.38,0,0.696-0.084,0.949-0.254c0.254-0.17,0.464-0.465,0.631-0.885l0.27,0.1l-0.289,0.789
			c-0.088,0.24-0.189,0.418-0.311,0.531s-0.308,0.17-0.562,0.17h-3.699L364.61,115.616L364.61,115.616z"/>
	</g>
</g>
<g>
	<path fill="#FFFFFF" d="M204.697,115.615c0-0.341-0.047-0.592-0.141-0.755c-0.093-0.164-0.279-0.245-0.56-0.245h-0.1v-0.3h2.72
		c1.347,0,2.371,0.285,3.075,0.854c0.703,0.57,1.055,1.372,1.055,2.405c0,0.66-0.148,1.242-0.445,1.744
		c-0.297,0.504-0.736,0.896-1.319,1.176c-0.584,0.279-1.285,0.42-2.105,0.42h-2.18V115.615z M206.846,120.515
		c0.467,0,0.882-0.116,1.245-0.35s0.646-0.57,0.851-1.01c0.203-0.44,0.305-0.953,0.305-1.54c0-0.58-0.102-1.089-0.305-1.525
		c-0.204-0.437-0.488-0.774-0.855-1.015c-0.366-0.24-0.786-0.36-1.26-0.36h-0.08c-0.22,0-0.396,0.014-0.53,0.04l-0.22,0.03v5.659
		l0.22,0.041c0.141,0.02,0.316,0.029,0.53,0.029H206.846z"/>
	<path fill="#FFFFFF" d="M211.996,115.615c0-0.341-0.047-0.592-0.141-0.755c-0.093-0.164-0.279-0.245-0.56-0.245h-0.1v-0.3h4.409
		c0.567,0,0.851,0.266,0.851,0.8v0.85h-0.3c0-0.413-0.105-0.716-0.315-0.909s-0.521-0.291-0.935-0.291h-1.61v2.5h2.6v0.45h-2.6v2.75
		h1.71c0.38,0,0.696-0.085,0.95-0.255c0.253-0.17,0.463-0.465,0.63-0.885l0.27,0.1l-0.29,0.79c-0.086,0.24-0.189,0.417-0.31,0.53
		s-0.307,0.17-0.56,0.17h-3.7V115.615z"/>
	<path fill="#FFFFFF" d="M217.706,115.485c-0.153-0.367-0.305-0.627-0.455-0.78s-0.328-0.243-0.535-0.271v-0.199l0.42-0.021
		c0.44,0,0.827,0.083,1.16,0.25s0.606,0.507,0.82,1.021l1.58,3.74l2.109-4.91h0.51l-2.88,6.699h-0.399L217.706,115.485z"/>
	<path fill="#FFFFFF" d="M224.346,115.615c0-0.341-0.047-0.592-0.141-0.755c-0.093-0.164-0.279-0.245-0.56-0.245h-0.1v-0.3h4.409
		c0.567,0,0.851,0.266,0.851,0.8v0.85h-0.3c0-0.413-0.105-0.716-0.315-0.909s-0.521-0.291-0.935-0.291h-1.61v2.5h2.6v0.45h-2.6v2.75
		h1.71c0.38,0,0.696-0.085,0.95-0.255c0.253-0.17,0.463-0.465,0.63-0.885l0.27,0.1l-0.29,0.79c-0.086,0.24-0.189,0.417-0.31,0.53
		s-0.307,0.17-0.56,0.17h-3.7V115.615z"/>
	<path fill="#FFFFFF" d="M230.346,115.615c0-0.341-0.047-0.592-0.141-0.755c-0.093-0.164-0.279-0.245-0.56-0.245h-0.1v-0.3h1.199
		c0.24,0,0.424,0.039,0.551,0.119c0.126,0.08,0.216,0.213,0.27,0.396c0.054,0.184,0.08,0.444,0.08,0.785v4.85h3.45v0.45h-4.75
		V115.615z"/>
	<path fill="#FFFFFF" d="M236.572,120.655c-0.504-0.307-0.892-0.727-1.165-1.26s-0.41-1.127-0.41-1.78s0.137-1.247,0.41-1.78
		s0.661-0.953,1.165-1.26c0.503-0.307,1.078-0.46,1.725-0.46s1.22,0.153,1.72,0.46s0.887,0.727,1.16,1.26s0.41,1.127,0.41,1.78
		s-0.137,1.247-0.41,1.78s-0.66,0.953-1.16,1.26s-1.073,0.46-1.72,0.46S237.074,120.962,236.572,120.655z M239.706,119.87
		c0.333-0.53,0.5-1.281,0.5-2.255s-0.167-1.726-0.5-2.255c-0.334-0.53-0.804-0.795-1.41-0.795s-1.075,0.265-1.405,0.795
		c-0.33,0.529-0.495,1.281-0.495,2.255s0.165,1.725,0.495,2.255c0.33,0.529,0.799,0.795,1.405,0.795S239.372,120.399,239.706,119.87
		z"/>
	<path fill="#FFFFFF" d="M242.846,115.615c0-0.341-0.047-0.592-0.141-0.755c-0.093-0.164-0.279-0.245-0.56-0.245h-0.1v-0.3h2.75
		c0.687,0,1.308,0.135,1.864,0.404c0.557,0.271,0.835,0.805,0.835,1.605c0,0.52-0.145,0.924-0.435,1.21s-0.615,0.477-0.975,0.569
		c-0.36,0.094-0.69,0.141-0.99,0.141h-0.95v2.67h-1.3V115.615z M244.745,117.845c0.394,0,0.717-0.119,0.971-0.359
		c0.253-0.24,0.38-0.644,0.38-1.211c0-0.56-0.125-0.959-0.375-1.199s-0.559-0.36-0.925-0.36c-0.193,0-0.344,0.014-0.45,0.04
		l-0.2,0.03v3.06H244.745z"/>
	<path fill="#FFFFFF" d="M254.581,120.86c-0.316-0.337-0.475-0.885-0.475-1.646v-3.54l-2.19,5.24h-0.33l-2.68-5.439v5.439h-0.5v-6.6
		h1.22l2.42,4.91l2.05-4.91h1.311v4.899c0,0.627,0.053,1.087,0.16,1.38c0.106,0.294,0.296,0.467,0.569,0.521v0.25
		C255.416,121.365,254.898,121.196,254.581,120.86z"/>
	<path fill="#FFFFFF" d="M257.286,115.615c0-0.341-0.047-0.592-0.141-0.755c-0.093-0.164-0.279-0.245-0.56-0.245h-0.1v-0.3h4.409
		c0.567,0,0.851,0.266,0.851,0.8v0.85h-0.3c0-0.413-0.105-0.716-0.315-0.909s-0.521-0.291-0.935-0.291h-1.61v2.5h2.6v0.45h-2.6v2.75
		h1.71c0.38,0,0.696-0.085,0.95-0.255c0.253-0.17,0.463-0.465,0.63-0.885l0.27,0.1l-0.29,0.79c-0.086,0.24-0.189,0.417-0.31,0.53
		s-0.307,0.17-0.56,0.17h-3.7V115.615z"/>
	<path fill="#FFFFFF" d="M263.816,115.965v4.95h-0.5v-5.4c0-0.279-0.069-0.5-0.205-0.66c-0.137-0.16-0.369-0.239-0.695-0.239h-0.05
		v-0.3h0.7c0.373,0,0.678,0.048,0.914,0.145c0.237,0.097,0.436,0.248,0.596,0.455l3.439,4v-4.6h0.5v6.629h-0.46L263.816,115.965z"/>
	<path fill="#FFFFFF" d="M271.575,114.765h-0.71c-0.374,0-0.659,0.094-0.855,0.28s-0.295,0.493-0.295,0.92h-0.3v-0.85
		c0-0.534,0.283-0.8,0.85-0.8h4.7v0.449h-2.09v6.15h-1.3V114.765z"/>
</g>
</svg>
