<?xml version="1.0" encoding="utf-8"?>
<!-- Generator: Adobe Illustrator 16.0.0, SVG Export Plug-In . SVG Version: 6.00 Build 0)  -->
<!DOCTYPE svg PUBLIC "-//W3C//DTD SVG 1.1//EN" "http://www.w3.org/Graphics/SVG/1.1/DTD/svg11.dtd">
<svg version="1.1" id="Layer_1" xmlns="http://www.w3.org/2000/svg" xmlns:xlink="http://www.w3.org/1999/xlink" x="0px" y="0px"
	 width="388.78px" height="153.17px" viewBox="0 0 388.78 153.17" enable-background="new 0 0 388.78 153.17" xml:space="preserve">
<g>
	<g>
		<path fill="#FFFFFF" d="M24.157,44.596c0-4.896-0.673-8.519-2.016-10.872c-1.346-2.352-4.032-3.528-8.064-3.528h-1.44v-4.32h39.6
			c9.887,0,18.839,1.944,26.856,5.832C87.107,35.596,91.117,43.3,91.117,54.82c0,7.488-2.088,13.298-6.264,17.424
			c-4.176,4.128-8.856,6.865-14.04,8.208c-5.184,1.346-9.936,2.016-14.256,2.016h-13.68v38.449h-18.72V44.596z M51.517,76.708
			c5.663,0,10.318-1.728,13.968-5.184c3.647-3.456,5.472-9.263,5.472-17.424c0-8.064-1.8-13.824-5.4-17.28
			c-3.6-3.456-8.042-5.184-13.32-5.184c-2.785,0-4.945,0.193-6.48,0.576l-2.88,0.432v44.063H51.517z"/>
	</g>
	<g>
		<path fill="#FFFFFF" d="M135.695,44.596c0-4.896-0.673-8.519-2.016-10.872c-1.346-2.352-4.032-3.528-8.064-3.528h-1.44v-4.32
			h39.168c19.39,0,34.15,4.104,44.28,12.312c10.128,8.208,15.192,19.753,15.192,34.632c0,9.505-2.138,17.881-6.408,25.128
			c-4.273,7.25-10.609,12.889-19.008,16.92c-8.402,4.032-18.504,6.049-30.312,6.049h-31.392V44.596z M166.655,115.157
			c6.718,0,12.694-1.68,17.928-5.041c5.231-3.359,9.311-8.207,12.24-14.544c2.928-6.336,4.393-13.728,4.393-22.176
			c0-8.352-1.465-15.671-4.393-21.96c-2.93-6.287-7.034-11.16-12.312-14.616c-5.281-3.456-11.329-5.184-18.144-5.184h-1.152
			c-3.168,0-5.713,0.193-7.632,0.576l-3.168,0.432v81.504l3.168,0.576c2.016,0.288,4.559,0.433,7.632,0.433H166.655z"/>
	</g>
	<g>
		<path fill="#FFFFFF" d="M295.642,119.26c-1.824-1.103-3.12-2.975-3.888-5.616c-0.77-2.64-1.151-6.455-1.151-11.448v-76.32h18.72
			v76.32c0,4.896,0.671,8.521,2.016,10.872c1.343,2.354,4.032,3.528,8.063,3.528h1.441v4.32h-17.281
			C300.106,120.917,297.464,120.365,295.642,119.26z"/>
	</g>
	<g>
		<path fill="#FFFFFF" d="M59.984,115.616c0-0.34-0.047-0.592-0.14-0.755s-0.28-0.245-0.56-0.245h-0.1v-0.3h2.75
			c0.687,0,1.309,0.136,1.865,0.405s0.835,0.805,0.835,1.605c0,0.52-0.145,0.923-0.435,1.209c-0.29,0.287-0.615,0.477-0.975,0.57
			s-0.69,0.141-0.99,0.141h-0.95v2.67h-1.3V115.616z M61.884,117.846c0.393,0,0.716-0.12,0.97-0.36
			c0.253-0.239,0.38-0.644,0.38-1.21c0-0.561-0.125-0.96-0.375-1.199c-0.25-0.24-0.559-0.361-0.925-0.361
			c-0.193,0-0.343,0.014-0.45,0.041l-0.2,0.029v3.061H61.884z"/>
		<path fill="#FFFFFF" d="M65.754,115.616c0-0.34-0.047-0.592-0.14-0.755s-0.28-0.245-0.56-0.245h-0.1v-0.3h4.41
			c0.566,0,0.85,0.267,0.85,0.8v0.85h-0.3c0-0.412-0.105-0.716-0.315-0.909s-0.521-0.29-0.935-0.29h-1.61v2.5h2.6v0.449h-2.6v2.75
			h1.71c0.38,0,0.697-0.084,0.95-0.254c0.253-0.17,0.463-0.465,0.63-0.885l0.27,0.1l-0.29,0.789c-0.087,0.24-0.19,0.418-0.31,0.531
			s-0.307,0.17-0.56,0.17h-3.7V115.616z"/>
		<path fill="#FFFFFF" d="M75.404,120.691c-0.3-0.216-0.614-0.591-0.94-1.125l-1-1.67h-0.4v3.021h-1.31v-5.301
			c0-0.34-0.047-0.592-0.14-0.755s-0.28-0.245-0.56-0.245h-0.1v-0.3h2.76c0.693,0,1.316,0.127,1.87,0.38
			c0.554,0.254,0.83,0.74,0.83,1.461c0,0.832-0.54,1.387-1.62,1.659l1.05,1.75c0.393,0.66,0.807,1.026,1.24,1.101v0.25
			c-0.053,0.025-0.15,0.049-0.29,0.069c-0.14,0.021-0.27,0.03-0.39,0.03C76.038,121.016,75.704,120.908,75.404,120.691z
			 M73.664,117.497c0.374,0,0.692-0.112,0.955-0.336c0.263-0.223,0.395-0.574,0.395-1.055c0-0.473-0.13-0.823-0.39-1.05
			c-0.26-0.227-0.563-0.341-0.91-0.341c-0.193,0-0.344,0.014-0.45,0.041l-0.2,0.029v2.711H73.664z"/>
		<path fill="#FFFFFF" d="M78.614,120.941c-0.347-0.097-0.63-0.236-0.85-0.42c-0.22-0.183-0.33-0.396-0.33-0.635v-1.171h0.28
			c0.1,0.681,0.31,1.171,0.63,1.471c0.32,0.3,0.767,0.45,1.34,0.45c0.386,0,0.693-0.083,0.92-0.25c0.227-0.167,0.34-0.407,0.34-0.72
			c0-0.268-0.083-0.494-0.25-0.681s-0.427-0.39-0.78-0.61l-1.23-0.739c-0.447-0.261-0.765-0.53-0.955-0.81
			c-0.19-0.281-0.285-0.607-0.285-0.98c0-0.527,0.202-0.943,0.605-1.25s0.948-0.46,1.635-0.46c0.373,0,0.733,0.048,1.08,0.146
			c0.347,0.096,0.63,0.236,0.85,0.42c0.22,0.183,0.33,0.395,0.33,0.635v1.17h-0.28c-0.114-0.68-0.324-1.17-0.63-1.471
			c-0.307-0.3-0.72-0.449-1.24-0.449c-0.36,0-0.645,0.086-0.855,0.26s-0.315,0.41-0.315,0.71c0,0.26,0.082,0.476,0.245,0.646
			c0.164,0.17,0.429,0.361,0.795,0.574l1.23,0.73c0.466,0.273,0.801,0.538,1.005,0.795c0.203,0.256,0.305,0.564,0.305,0.925
			c0,0.58-0.219,1.035-0.655,1.364c-0.437,0.33-1.055,0.496-1.855,0.496C79.32,121.086,78.96,121.038,78.614,120.941z"/>
		<path fill="#FFFFFF" d="M84.519,120.657c-0.503-0.307-0.892-0.727-1.165-1.261c-0.273-0.533-0.41-1.126-0.41-1.78
			c0-0.652,0.136-1.246,0.41-1.779s0.662-0.953,1.165-1.26s1.079-0.461,1.725-0.461s1.22,0.154,1.72,0.461s0.886,0.727,1.16,1.26
			s0.41,1.127,0.41,1.779c0,0.654-0.137,1.247-0.41,1.78c-0.273,0.534-0.66,0.954-1.16,1.261c-0.5,0.306-1.074,0.459-1.72,0.459
			S85.022,120.962,84.519,120.657z M87.654,119.872c0.333-0.531,0.5-1.282,0.5-2.256c0-0.973-0.167-1.725-0.5-2.255
			c-0.333-0.53-0.804-0.795-1.41-0.795s-1.075,0.265-1.405,0.795s-0.495,1.282-0.495,2.255c0,0.974,0.165,1.725,0.495,2.256
			c0.33,0.529,0.798,0.795,1.405,0.795S87.32,120.401,87.654,119.872z"/>
		<path fill="#FFFFFF" d="M91.324,115.965v4.951h-0.5v-5.4c0-0.28-0.068-0.5-0.205-0.66s-0.368-0.24-0.695-0.24h-0.05v-0.3h0.7
			c0.374,0,0.678,0.048,0.915,0.146c0.236,0.096,0.435,0.248,0.595,0.455l3.44,4v-4.601h0.5v6.63h-0.46L91.324,115.965z"/>
		<path fill="#FFFFFF" d="M101.904,120.691c-0.34-0.177-0.617-0.521-0.83-1.034l-0.23-0.561h-2.66l-0.82,1.82h-0.52l2.95-6.601h0.45
			l2.24,5.341c0.253,0.619,0.6,0.953,1.04,1v0.25c-0.12,0.033-0.28,0.049-0.48,0.049
			C102.624,120.956,102.244,120.868,101.904,120.691z M98.394,118.646h2.26l-1.1-2.61L98.394,118.646z"/>
		<path fill="#FFFFFF" d="M104.184,115.616c0-0.34-0.047-0.592-0.14-0.755s-0.28-0.245-0.56-0.245h-0.1v-0.3h1.2
			c0.24,0,0.423,0.04,0.55,0.12s0.217,0.212,0.27,0.395c0.053,0.184,0.08,0.445,0.08,0.785v4.85h3.45v0.451h-4.75V115.616z"/>
	</g>
	<g>
		<path fill="#FFFFFF" d="M204.696,115.616c0-0.34-0.047-0.592-0.141-0.755s-0.28-0.245-0.561-0.245h-0.1v-0.3h2.721
			c1.346,0,2.371,0.285,3.074,0.854c0.703,0.57,1.055,1.373,1.055,2.406c0,0.659-0.148,1.241-0.444,1.744
			c-0.297,0.504-0.737,0.895-1.32,1.176c-0.583,0.279-1.284,0.42-2.104,0.42h-2.18V115.616z M206.846,120.516
			c0.466,0,0.882-0.117,1.245-0.35c0.363-0.234,0.646-0.57,0.85-1.01c0.203-0.441,0.305-0.954,0.305-1.541
			c0-0.58-0.102-1.088-0.305-1.525c-0.203-0.436-0.488-0.774-0.855-1.014c-0.366-0.24-0.786-0.361-1.26-0.361h-0.08
			c-0.22,0-0.396,0.014-0.529,0.041l-0.221,0.029v5.66l0.221,0.04c0.14,0.021,0.316,0.03,0.529,0.03H206.846z"/>
		<path fill="#FFFFFF" d="M211.995,115.616c0-0.34-0.047-0.592-0.14-0.755s-0.28-0.245-0.56-0.245h-0.101v-0.3h4.41
			c0.566,0,0.851,0.267,0.851,0.8v0.85h-0.301c0-0.412-0.105-0.716-0.314-0.909c-0.211-0.193-0.521-0.29-0.936-0.29h-1.609v2.5h2.6
			v0.449h-2.6v2.75h1.709c0.381,0,0.697-0.084,0.951-0.254c0.252-0.17,0.463-0.465,0.629-0.885l0.271,0.1l-0.29,0.789
			c-0.087,0.24-0.189,0.418-0.311,0.531c-0.119,0.113-0.307,0.17-0.56,0.17h-3.7V115.616z"/>
		<path fill="#FFFFFF" d="M217.706,115.486c-0.154-0.366-0.306-0.626-0.455-0.78c-0.15-0.152-0.328-0.242-0.535-0.27v-0.2
			l0.42-0.021c0.439,0,0.826,0.084,1.16,0.25c0.333,0.168,0.605,0.508,0.819,1.021l1.58,3.74l2.11-4.91h0.51l-2.88,6.7h-0.399
			L217.706,115.486z"/>
		<path fill="#FFFFFF" d="M224.346,115.616c0-0.34-0.047-0.592-0.14-0.755c-0.094-0.163-0.281-0.245-0.561-0.245h-0.1v-0.3h4.41
			c0.566,0,0.85,0.267,0.85,0.8v0.85h-0.301c0-0.412-0.104-0.716-0.314-0.909s-0.521-0.29-0.936-0.29h-1.609v2.5h2.6v0.449h-2.6
			v2.75h1.71c0.38,0,0.696-0.084,0.95-0.254c0.253-0.17,0.463-0.465,0.63-0.885l0.271,0.1l-0.291,0.789
			c-0.086,0.24-0.189,0.418-0.31,0.531s-0.307,0.17-0.56,0.17h-3.7V115.616z"/>
		<path fill="#FFFFFF" d="M233.995,120.691c-0.3-0.216-0.613-0.591-0.939-1.125l-1-1.67h-0.4v3.021h-1.31v-5.301
			c0-0.34-0.047-0.592-0.14-0.755c-0.094-0.163-0.281-0.245-0.561-0.245h-0.1v-0.3h2.76c0.693,0,1.316,0.127,1.869,0.38
			c0.555,0.254,0.83,0.74,0.83,1.461c0,0.832-0.539,1.387-1.619,1.659l1.05,1.75c0.394,0.66,0.807,1.026,1.239,1.101v0.25
			c-0.053,0.025-0.149,0.049-0.289,0.069c-0.141,0.021-0.27,0.03-0.391,0.03C234.629,121.016,234.296,120.908,233.995,120.691z
			 M232.255,117.497c0.374,0,0.692-0.112,0.955-0.336c0.264-0.223,0.396-0.574,0.396-1.055c0-0.473-0.13-0.823-0.39-1.05
			s-0.564-0.341-0.91-0.341c-0.193,0-0.344,0.014-0.45,0.041l-0.2,0.029v2.711H232.255z"/>
		<path fill="#FFFFFF" d="M236.505,115.616c0-0.34-0.047-0.592-0.14-0.755s-0.28-0.245-0.56-0.245h-0.101v-0.3h1.2
			c0.24,0,0.424,0.04,0.55,0.12s0.217,0.212,0.271,0.395c0.053,0.184,0.08,0.445,0.08,0.785v4.85h3.449v0.451h-4.75V115.616z"/>
		<path fill="#FFFFFF" d="M242.729,120.657c-0.503-0.307-0.891-0.727-1.164-1.261c-0.273-0.533-0.41-1.126-0.41-1.78
			c0-0.652,0.137-1.246,0.41-1.779s0.661-0.953,1.164-1.26c0.504-0.307,1.079-0.461,1.726-0.461s1.22,0.154,1.72,0.461
			s0.887,0.727,1.16,1.26s0.41,1.127,0.41,1.779c0,0.654-0.137,1.247-0.41,1.78c-0.273,0.534-0.66,0.954-1.16,1.261
			c-0.5,0.306-1.073,0.459-1.72,0.459S243.233,120.962,242.729,120.657z M245.865,119.872c0.333-0.531,0.5-1.282,0.5-2.256
			c0-0.973-0.167-1.725-0.5-2.255s-0.804-0.795-1.41-0.795s-1.075,0.265-1.405,0.795s-0.494,1.282-0.494,2.255
			c0,0.974,0.164,1.725,0.494,2.256c0.33,0.529,0.799,0.795,1.405,0.795S245.532,120.401,245.865,119.872z"/>
		<path fill="#FFFFFF" d="M249.005,115.616c0-0.34-0.047-0.592-0.14-0.755s-0.28-0.245-0.56-0.245h-0.101v-0.3h2.75
			c0.687,0,1.309,0.136,1.865,0.405s0.835,0.805,0.835,1.605c0,0.52-0.145,0.923-0.436,1.209c-0.289,0.287-0.615,0.477-0.975,0.57
			s-0.689,0.141-0.99,0.141h-0.949v2.67h-1.301V115.616z M250.905,117.846c0.393,0,0.717-0.12,0.97-0.36
			c0.253-0.239,0.38-0.644,0.38-1.21c0-0.561-0.125-0.96-0.375-1.199c-0.25-0.24-0.559-0.361-0.925-0.361
			c-0.193,0-0.343,0.014-0.45,0.041l-0.199,0.029v3.061H250.905z"/>
		<path fill="#FFFFFF" d="M260.74,120.861c-0.317-0.337-0.476-0.885-0.476-1.646v-3.539l-2.189,5.24h-0.33l-2.68-5.44v5.44h-0.5
			v-6.601h1.22l2.42,4.91l2.05-4.91h1.311v4.899c0,0.627,0.053,1.088,0.16,1.381c0.105,0.293,0.297,0.467,0.57,0.52v0.25
			C261.575,121.366,261.057,121.198,260.74,120.861z"/>
		<path fill="#FFFFFF" d="M263.445,115.616c0-0.34-0.047-0.592-0.14-0.755c-0.094-0.163-0.281-0.245-0.561-0.245h-0.1v-0.3h4.41
			c0.566,0,0.85,0.267,0.85,0.8v0.85h-0.301c0-0.412-0.104-0.716-0.314-0.909s-0.521-0.29-0.936-0.29h-1.609v2.5h2.6v0.449h-2.6
			v2.75h1.71c0.38,0,0.696-0.084,0.95-0.254c0.253-0.17,0.463-0.465,0.63-0.885l0.271,0.1l-0.291,0.789
			c-0.086,0.24-0.189,0.418-0.31,0.531s-0.307,0.17-0.56,0.17h-3.7V115.616z"/>
		<path fill="#FFFFFF" d="M269.976,115.965v4.951h-0.5v-5.4c0-0.28-0.068-0.5-0.205-0.66s-0.369-0.24-0.695-0.24h-0.051v-0.3h0.701
			c0.373,0,0.678,0.048,0.914,0.146c0.236,0.096,0.436,0.248,0.596,0.455l3.439,4v-4.601h0.5v6.63h-0.459L269.976,115.965z"/>
		<path fill="#FFFFFF" d="M277.734,114.766h-0.71c-0.373,0-0.658,0.094-0.855,0.279c-0.196,0.188-0.295,0.494-0.295,0.92h-0.299
			v-0.85c0-0.533,0.283-0.8,0.85-0.8h4.699v0.45h-2.09v6.15h-1.3V114.766z"/>
	</g>
	<g>
		<path fill="#FFFFFF" d="M327.001,120.801c-0.127-0.076-0.217-0.207-0.27-0.391c-0.055-0.184-0.08-0.447-0.08-0.795v-5.3h1.299v5.3
			c0,0.34,0.047,0.592,0.141,0.756c0.094,0.163,0.279,0.244,0.561,0.244h0.1v0.301h-1.2
			C327.312,120.917,327.128,120.877,327.001,120.801z"/>
		<path fill="#FFFFFF" d="M330.381,115.965v4.951h-0.5v-5.4c0-0.28-0.068-0.5-0.205-0.66s-0.368-0.24-0.694-0.24h-0.051v-0.3h0.7
			c0.374,0,0.679,0.048,0.915,0.146c0.236,0.096,0.436,0.248,0.596,0.455l3.439,4v-4.601h0.5v6.63h-0.46L330.381,115.965z"/>
		<path fill="#FFFFFF" d="M337.47,120.941c-0.346-0.097-0.629-0.236-0.85-0.42c-0.22-0.183-0.33-0.396-0.33-0.635v-1.171h0.28
			c0.101,0.681,0.31,1.171,0.63,1.471s0.767,0.45,1.34,0.45c0.387,0,0.693-0.083,0.92-0.25s0.34-0.407,0.34-0.72
			c0-0.268-0.083-0.494-0.25-0.681c-0.166-0.187-0.426-0.39-0.779-0.61l-1.23-0.739c-0.446-0.261-0.765-0.53-0.955-0.81
			c-0.189-0.281-0.285-0.607-0.285-0.98c0-0.527,0.202-0.943,0.605-1.25s0.948-0.46,1.635-0.46c0.373,0,0.733,0.048,1.08,0.146
			c0.347,0.096,0.631,0.236,0.85,0.42c0.221,0.183,0.33,0.395,0.33,0.635v1.17h-0.279c-0.113-0.68-0.324-1.17-0.631-1.471
			c-0.307-0.3-0.719-0.449-1.239-0.449c-0.36,0-0.646,0.086-0.854,0.26c-0.211,0.174-0.315,0.41-0.315,0.71
			c0,0.26,0.081,0.476,0.245,0.646c0.163,0.17,0.428,0.361,0.795,0.574l1.23,0.73c0.466,0.273,0.801,0.538,1.004,0.795
			c0.203,0.256,0.306,0.564,0.306,0.925c0,0.58-0.219,1.035-0.655,1.364c-0.437,0.33-1.055,0.496-1.855,0.496
			C338.177,121.086,337.817,121.038,337.47,120.941z"/>
		<path fill="#FFFFFF" d="M343.751,114.766h-0.711c-0.373,0-0.658,0.094-0.854,0.279c-0.196,0.188-0.295,0.494-0.295,0.92h-0.3
			v-0.85c0-0.533,0.283-0.8,0.85-0.8h4.7v0.45h-2.09v6.15h-1.3V114.766z"/>
		<path fill="#FFFFFF" d="M348.321,120.801c-0.127-0.076-0.217-0.207-0.271-0.391s-0.08-0.447-0.08-0.795v-5.3h1.3v5.3
			c0,0.34,0.047,0.592,0.141,0.756c0.093,0.163,0.279,0.244,0.56,0.244h0.101v0.301h-1.201
			C348.631,120.917,348.447,120.877,348.321,120.801z"/>
		<path fill="#FFFFFF" d="M352.54,114.766h-0.71c-0.374,0-0.658,0.094-0.854,0.279c-0.197,0.188-0.295,0.494-0.295,0.92h-0.301
			v-0.85c0-0.533,0.283-0.8,0.85-0.8h4.701v0.45h-2.09v6.15h-1.301V114.766z"/>
		<path fill="#FFFFFF" d="M356.89,118.036v-2.42c0-0.34-0.047-0.592-0.14-0.755s-0.28-0.245-0.56-0.245v-0.3h1.1
			c0.24,0,0.424,0.04,0.551,0.12c0.126,0.08,0.216,0.212,0.27,0.395c0.053,0.184,0.08,0.445,0.08,0.785l0.01,2.721
			c0.006,0.707,0.145,1.254,0.415,1.645s0.661,0.585,1.175,0.585c0.68,0,1.176-0.202,1.485-0.604
			c0.31-0.404,0.465-1.045,0.465-1.926v-3.72h0.5v3.72c0,0.98-0.206,1.723-0.62,2.226s-1.09,0.755-2.029,0.755
			C357.79,121.016,356.89,120.023,356.89,118.036z"/>
		<path fill="#FFFFFF" d="M365.229,114.766h-0.709c-0.374,0-0.658,0.094-0.855,0.279c-0.197,0.188-0.295,0.494-0.295,0.92h-0.3
			v-0.85c0-0.533,0.283-0.8,0.85-0.8h4.7v0.45h-2.09v6.15h-1.301V114.766z"/>
		<path fill="#FFFFFF" d="M369.61,115.616c0-0.34-0.047-0.592-0.141-0.755c-0.093-0.163-0.279-0.245-0.56-0.245h-0.101v-0.3h4.41
			c0.566,0,0.851,0.267,0.851,0.8v0.85h-0.3c0-0.412-0.105-0.716-0.315-0.909s-0.521-0.29-0.935-0.29h-1.61v2.5h2.601v0.449h-2.601
			v2.75h1.71c0.38,0,0.697-0.084,0.95-0.254s0.463-0.465,0.63-0.885l0.27,0.1l-0.289,0.789c-0.088,0.24-0.19,0.418-0.311,0.531
			s-0.307,0.17-0.561,0.17h-3.699V115.616z"/>
	</g>
</g>
</svg>
