<?xml version="1.0" encoding="utf-8"?>
<!-- Generator: Adobe Illustrator 16.0.0, SVG Export Plug-In . SVG Version: 6.00 Build 0)  -->
<!DOCTYPE svg PUBLIC "-//W3C//DTD SVG 1.1//EN" "http://www.w3.org/Graphics/SVG/1.1/DTD/svg11.dtd">
<svg version="1.1" id="Layer_1" xmlns="http://www.w3.org/2000/svg" xmlns:xlink="http://www.w3.org/1999/xlink" x="0px" y="0px"
	 width="841.889px" height="595.281px" viewBox="0 0 841.889 595.281" enable-background="new 0 0 841.889 595.281"
	 xml:space="preserve">
<g>
	<g>
		<path fill="#C0E264" d="M403.993,433.065L302.282,534.778c-15.276,15.276-35.602,23.225-57.328,22.181
			c-21.754-0.979-42.722-10.502-59.032-26.812c-15.785-15.778-24.477-36.764-24.477-59.083c0-22.32,8.689-43.305,24.477-59.089
			l98.146-98.147l-26.967-26.967L158.955,385c-22.994,22.994-35.65,53.554-35.65,86.062s12.656,63.068,35.646,86.056
			c23.068,23.063,53,36.541,84.296,37.946c1.792,0.082,3.585,0.12,5.363,0.12c30.501,0,58.962-11.754,80.642-33.438l101.713-101.713
			L403.993,433.065z"/>
	</g>
</g>
<g>
	<g>
		<path fill="#C0E264" d="M680.324,35.746c-47.447-47.456-124.663-47.456-172.11,0l-98.541,98.542l26.967,26.967l98.548-98.542
			c32.58-32.58,85.592-32.58,118.172,0c33.921,33.924,36.083,84.912,4.92,116.074L550.21,286.858l26.968,26.967L685.24,205.76
			C731.531,159.474,729.369,84.791,680.324,35.746z"/>
	</g>
</g>
<g>
	<g>
		<path fill="#C0E264" d="M680.33,385.008L331.073,35.746C308.08,12.753,277.521,0.096,245.011,0.096s-63.068,12.655-86.056,35.645
			c-47.456,47.455-47.456,124.662,0,172.118l349.259,349.266c22.985,22.987,53.546,35.646,86.056,35.646
			c32.504,0,63.075-12.657,86.062-35.651C727.786,509.67,727.786,432.455,680.33,385.008z M653.365,530.15
			c-15.784,15.785-36.77,24.475-59.089,24.475c-22.32,0-43.305-8.694-59.09-24.475L185.928,180.891
			c-32.58-32.587-32.58-85.601,0-118.181c15.778-15.782,36.764-24.475,59.083-24.475c22.32,0,43.305,8.69,59.096,24.481
			l349.259,349.259C685.946,444.558,685.946,497.57,653.365,530.15z"/>
	</g>
</g>
<g>
	<g>
		<path fill="#C0E264" d="M493.459,300.9l-78.64-78.637c-8.595-8.591-21.588-9.529-29.014-2.1l-41.867,41.861
			c-7.432,7.438-6.497,20.425,2.1,29.014l78.647,78.64c8.589,8.588,21.576,9.527,29.008,2.098l41.868-41.861
			C502.992,322.483,502.054,309.496,493.459,300.9z"/>
	</g>
</g>
<g>
	<g>
		<circle fill="#C0E264" cx="272.474" cy="386.861" r="19.071"/>
	</g>
</g>
<g>
	<g>
		<circle fill="#C0E264" cx="330.896" cy="445.346" r="19.071"/>
	</g>
</g>
<g>
	<g>
		<circle fill="#C0E264" cx="214.052" cy="445.346" r="19.071"/>
	</g>
</g>
<g>
	<g>
		<circle fill="#C0E264" cx="272.474" cy="503.768" r="19.071"/>
	</g>
</g>
<g>
	<g>
		<circle fill="#C0E264" cx="566.869" cy="92.528" r="19.071"/>
	</g>
</g>
<g>
	<g>
		<circle fill="#C0E264" cx="625.291" cy="150.949" r="19.071"/>
	</g>
</g>
<g>
	<g>
		<circle fill="#C0E264" cx="508.448" cy="150.949" r="19.071"/>
	</g>
</g>
<g>
	<g>
		<circle fill="#C0E264" cx="566.869" cy="209.384" r="19.071"/>
	</g>
</g>
</svg>
