<?xml version="1.0" encoding="utf-8"?>
<!-- Generator: Adobe Illustrator 16.0.0, SVG Export Plug-In . SVG Version: 6.00 Build 0)  -->
<!DOCTYPE svg PUBLIC "-//W3C//DTD SVG 1.1//EN" "http://www.w3.org/Graphics/SVG/1.1/DTD/svg11.dtd">
<svg version="1.1" id="Layer_1" xmlns="http://www.w3.org/2000/svg" xmlns:xlink="http://www.w3.org/1999/xlink" x="0px" y="0px"
	 width="320px" height="291px" viewBox="162.5 50.5 320 291" enable-background="new 162.5 50.5 320 291" xml:space="preserve">
<g>
	<polygon fill="none" stroke="#000000" stroke-linecap="round" stroke-linejoin="round" stroke-miterlimit="10" points="
		388.467,195.199 388.467,246.98 350.179,246.98 350.179,285.239 298.423,285.239 298.423,246.98 260.169,246.98 260.169,195.199 
		298.423,195.199 298.423,156.941 350.179,156.941 350.179,195.199 	"/>
	<path fill="none" stroke="#000000" stroke-linecap="round" stroke-linejoin="round" stroke-miterlimit="10" d="M370.258,110.918
		h-96.392c5.76-22.092,25.152-38.319,48.196-38.319C345.105,72.599,364.498,88.827,370.258,110.918z"/>
	<path fill="none" stroke="#000000" stroke-linecap="round" stroke-linejoin="round" stroke-miterlimit="10" d="M350.179,195.199
		v-38.258h-51.756v38.254h-38.254v51.786h38.254v38.255h51.752V246.98h38.288v-51.782H350.179z"/>
	<path fill="#F16531" stroke="#F16531" stroke-linecap="round" stroke-linejoin="round" stroke-miterlimit="10" d="M430.703,110.918
		h-48.131c-6.024-28.873-30.815-50.504-60.51-50.504c-29.665,0-54.452,21.631-60.477,50.504h-44.609
		c-21.827,0-39.506,17.679-39.506,39.506v141.332c0,21.826,17.679,39.506,39.506,39.506h213.727
		c21.827,0,39.506-17.68,39.506-39.506V150.424C470.209,128.598,452.53,110.918,430.703,110.918z M322.062,72.595
		c23.043,0,42.436,16.231,48.195,38.319h-96.392C279.626,88.827,299.018,72.595,322.062,72.595z M388.467,246.98h-38.288v38.255
		h-51.756V246.98h-38.254v-51.782h38.254v-38.258h51.752v38.254h38.288v51.786H388.467z"/>
	<path fill="none" stroke="#F16531" stroke-linecap="round" stroke-linejoin="round" stroke-miterlimit="10" d="M370.258,110.918
		h-96.392c5.76-22.092,25.152-38.319,48.196-38.319C345.105,72.599,364.498,88.827,370.258,110.918z"/>
</g>
</svg>
