<?xml version="1.0" encoding="utf-8"?>
<!-- Generator: Adobe Illustrator 16.0.0, SVG Export Plug-In . SVG Version: 6.00 Build 0)  -->
<!DOCTYPE svg PUBLIC "-//W3C//DTD SVG 1.1//EN" "http://www.w3.org/Graphics/SVG/1.1/DTD/svg11.dtd">
<svg version="1.1" id="Layer_1" xmlns="http://www.w3.org/2000/svg" xmlns:xlink="http://www.w3.org/1999/xlink" x="0px" y="0px"
	 width="363px" height="246px" viewBox="135.5 65.5 363 246" enable-background="new 135.5 65.5 363 246" xml:space="preserve">
<g>
	<circle fill="#0090C7" cx="317.984" cy="97.279" r="22.802"/>
	<path fill="#0090C7" d="M174.33,96.587c0,0,7.454-1.49,13.417-5.165c-0.653,2.124-1.006,4.374-1.006,6.708
		c0,12.599,10.215,22.806,22.806,22.806c12.595,0,22.806-10.21,22.806-22.806s-10.21-22.802-22.806-22.802
		c-7.419,0-13.989,3.56-18.156,9.043c-3.494-2.535-10.752-6.102-17.161,1.759c0,0-5.338,6.777-13.812,0.752
		C160.417,86.88,162.441,99.099,174.33,96.587z"/>
	<path fill="#0090C7" d="M391.348,96.587c0,0,7.449-1.49,13.416-5.165c-0.652,2.124-1.01,4.374-1.01,6.708
		c0,12.599,10.211,22.806,22.806,22.806c12.596,0,22.807-10.21,22.807-22.806s-10.211-22.802-22.807-22.802
		c-7.422,0-13.992,3.56-18.159,9.043c-3.49-2.535-10.752-6.102-17.16,1.759c0,0-5.338,6.777-13.812,0.752
		C377.436,86.88,379.459,99.099,391.348,96.587z"/>
	<path fill="#0090C7" d="M487.213,97.801c-1.959-1.67-4.358-2.492-6.747-2.492c-2.934,0-5.841,1.237-7.91,3.641l-29.526,32.16
		c0-11.128-4.017-3.226-15.924-3.226h-1.083c-11.912,0-15.925-7.902-15.925,3.226l-28.911-30.885
		c-0.603-1.217-1.455-2.335-2.554-3.276c-1.962-1.67-4.358-2.488-6.75-2.488c-2.935,0-5.842,1.237-7.907,3.641l-29.522,32.16
		c0-11.128-4.016-3.229-15.924-3.229h-1.083c-11.908,0-15.924-7.899-15.924,3.229L272,98.711c-2.062-2.408-4.977-3.64-7.907-3.64
		c-1.413,0-2.818,0.322-4.143,0.898c-1.647,0.591-3.184,1.551-4.405,2.98l-29.529,32.16c0-11.128-4.013-3.226-15.925-3.226h-1.079
		c-11.912,0-15.925-7.902-15.925,3.226l-29.529-31.546c-2.062-2.408-4.973-3.644-7.907-3.644c-2.389,0-4.789,0.822-6.747,2.492
		c-4.366,3.725-4.884,10.287-1.148,14.649l37.206,43.069l-9.63,85.329h10.518l-5.026,53.799c-0.534,5.71,3.663,10.778,9.381,11.309
		c0.327,0.03,0.657,0.05,0.972,0.05h0.004l0,0c5.299,0,9.826-4.044,10.333-9.427l0.003-0.055l7.334-50.411h1.382l7.342,50.466
		c0.507,5.383,5.034,9.427,10.333,9.427c0.322,0,0.645-0.02,0.979-0.05c5.714-0.534,9.915-5.599,9.381-11.309l-5.023-53.799h10.51
		l-9.604-85.955l29.714-34.402l29.522,34.176l-3.986,57.12h7.438v0.737l-7.592,81.262c-0.534,5.718,3.667,10.782,9.381,11.316
		c0.33,0.026,0.657,0.042,0.979,0.042c5.303,0,9.831-4.039,10.333-9.423l7.346-78.667h1.378l7.346,78.667
		c0.507,5.384,5.037,9.423,10.333,9.423c0.327,0,0.649-0.016,0.979-0.042c5.714-0.538,9.911-5.599,9.381-11.316l-7.596-81.262
		v-0.737h7.442l-3.971-57.746l29.05-33.631l30.336,35.113l-9.623,85.329h10.514l-5.026,53.799
		c-0.534,5.71,3.667,10.778,9.381,11.309c0.326,0.03,0.657,0.05,0.976,0.05h0.004h0.004c5.299,0,9.826-4.044,10.333-9.427
		l0.004-0.055l7.335-50.411h1.378l7.347,50.466c0.507,5.383,5.034,9.427,10.329,9.427c0.326,0,0.649-0.02,0.979-0.05
		c5.714-0.534,9.915-5.599,9.381-11.309l-5.026-53.799h10.514l-9.596-85.955l37.187-43.05
		C492.094,108.092,491.579,101.533,487.213,97.801z"/>
</g>
</svg>
