<?xml version="1.0" encoding="utf-8"?>
<!-- Generator: Adobe Illustrator 16.0.0, SVG Export Plug-In . SVG Version: 6.00 Build 0)  -->
<!DOCTYPE svg PUBLIC "-//W3C//DTD SVG 1.1//EN" "http://www.w3.org/Graphics/SVG/1.1/DTD/svg11.dtd">
<svg version="1.1" id="Layer_1" xmlns="http://www.w3.org/2000/svg" xmlns:xlink="http://www.w3.org/1999/xlink" x="0px" y="0px"
	 width="300px" height="150px" viewBox="0 0 300 150" enable-background="new 0 0 300 150" xml:space="preserve">
<g id="Main_5_">
	<text transform="matrix(1 0 0 1 38.6138 135.0977)" fill="#A6A8A7" font-family="'Lobster-Regular'" font-size="16.054">Đồng hành trên mỗi bước trưởng thành</text>
	<g>
		<g>
			<g>
				<path fill="#231F20" d="M39.03,89.291c0-1.749-0.231-3.042-0.695-3.882c-0.462-0.838-1.412-1.258-2.852-1.258h-0.513V82.61
					h5.087c1.198,0,2.123,0.162,2.774,0.489c0.651,0.324,1.163,0.88,1.542,1.669c2.021-1.781,4.349-2.672,6.989-2.672
					c3.459,0,6.123,1.173,7.991,3.519c1.865,2.348,2.8,5.37,2.8,9.07c0,3.701-0.95,6.723-2.853,9.071
					c-1.9,2.346-4.633,3.519-8.195,3.519c-1.405,0-2.723-0.257-3.957-0.771c-0.548-0.205-1.029-0.463-1.438-0.771v10.791h-6.68
					V89.291z M55.216,94.686c0-3.151-0.394-5.652-1.182-7.503c-0.788-1.849-2.021-2.774-3.7-2.774c-1.919,0-3.581,0.702-4.983,2.106
					l0.153,0.719c0.137,0.413,0.206,0.996,0.206,1.75v14.438c0.376,0.309,0.787,0.566,1.232,0.771
					c0.96,0.515,2.005,0.769,3.135,0.769C53.503,104.962,55.216,101.537,55.216,94.686z"/>
				<path fill="#231F20" d="M68.55,103.757c-1.868-2.349-2.8-5.37-2.8-9.071c0-3.7,0.95-6.723,2.852-9.07
					c1.9-2.346,4.634-3.519,8.197-3.519c1.233,0,2.551,0.257,3.956,0.771c0.514,0.24,0.994,0.496,1.439,0.771v-4.114
					c0-1.745-0.24-3.037-0.721-3.877c-0.479-0.84-1.437-1.261-2.877-1.261h-0.514v-1.542h6.168c1.231,0,2.174,0.206,2.825,0.619
					c0.651,0.41,1.115,1.086,1.388,2.028c0.273,0.943,0.411,2.288,0.411,4.032v27.236h-4.369l-1.797-2.311h-0.257
					c-0.308,0.479-0.79,0.96-1.439,1.438c-1.164,0.924-2.655,1.388-4.47,1.388C73.081,107.275,70.417,106.103,68.55,103.757z
					 M81.011,103.319c0.376-0.376,0.771-0.943,1.183-1.697V85.948c-0.344-0.271-0.754-0.528-1.235-0.769
					c-1.095-0.515-2.14-0.771-3.132-0.771c-3.427,0-5.139,3.426-5.139,10.277c0,3.187,0.386,5.696,1.156,7.528
					c0.771,1.833,2.011,2.748,3.726,2.748C78.837,104.962,79.985,104.416,81.011,103.319z"/>
				<path fill="#231F20" d="M97.662,89.291c0-1.749-0.241-3.042-0.72-3.882c-0.48-0.838-1.438-1.258-2.879-1.258h-0.514V82.61h6.168
					c1.233,0,2.175,0.205,2.826,0.617c0.651,0.411,1.113,1.086,1.387,2.029c0.273,0.941,0.412,2.285,0.412,4.034v17.47h-6.68V89.291
					z M98.149,78.704c-0.668-0.752-1.002-1.676-1.002-2.774c0-0.891,0.265-1.593,0.797-2.107c0.531-0.515,1.207-0.771,2.028-0.771
					c1.235,0,2.186,0.377,2.854,1.13c0.667,0.755,1.002,1.68,1.002,2.777c0,0.891-0.266,1.593-0.796,2.105
					c-0.532,0.514-1.208,0.771-2.03,0.771C99.767,79.834,98.816,79.458,98.149,78.704z"/>
			</g>
		</g>
		<g>
			<path fill="#0090C7" d="M147.633,52.258c-1.506-4.506-4.932-5.562-5.059-5.6c0.078-0.104,2.183-3.007,0.677-7.515
				c-1.535-4.594-9.962-6.788-18.862-0.883c-10.393,7.124-17.025,18.844-16.694,20.05l-0.003,0.001c0,0.002,0.003,0.005,0.003,0.006
				c0.002,0.002,0,0.005,0,0.008l0.003-0.002c0.461,1.162,12.809,6.536,25.397,5.98C143.756,63.673,149.17,56.85,147.633,52.258z"/>
			<path fill="#F16531" d="M61.104,52.258c1.505-4.506,4.934-5.562,5.06-5.6c-0.078-0.104-2.183-3.007-0.678-7.515
				c1.537-4.594,9.964-6.788,18.862-0.883c10.391,7.124,17.025,18.844,16.695,20.05l0.003,0.001c0,0.002-0.003,0.005-0.003,0.006
				c-0.002,0.002-0.002,0.005-0.002,0.008l-0.004-0.002c-0.458,1.162-12.808,6.536-25.395,5.98
				C64.982,63.673,59.569,56.85,61.104,52.258z"/>
			<path fill="#79A242" d="M111.27,15.335c-4.751,0.005-6.833,2.923-6.909,3.03c-0.075-0.106-2.164-3.019-6.918-3.017
				c-4.843,0.01-9.588,7.313-6.793,17.621c3.478,12.108,12.504,22.104,13.751,22.172v0.002c0.002,0,0.005-0.001,0.006-0.002
				c0.004,0,0.006,0.001,0.009,0.001v-0.003c1.249-0.069,10.246-10.089,13.693-22.206C120.877,22.619,116.114,15.328,111.27,15.335z
				"/>
		</g>
	</g>
</g>
</svg>
