<?xml version="1.0" encoding="utf-8"?>
<!-- Generator: Adobe Illustrator 16.0.0, SVG Export Plug-In . SVG Version: 6.00 Build 0)  -->
<!DOCTYPE svg PUBLIC "-//W3C//DTD SVG 1.1//EN" "http://www.w3.org/Graphics/SVG/1.1/DTD/svg11.dtd">
<svg version="1.1" id="Layer_1" xmlns="http://www.w3.org/2000/svg" xmlns:xlink="http://www.w3.org/1999/xlink" x="0px" y="0px"
	 width="366px" height="351px" viewBox="136.5 14.5 366 351" enable-background="new 136.5 14.5 366 351" xml:space="preserve">
<g>
	<path fill="#79A242" d="M320,32c-88.224,0-160,71.776-160,160c0,88.225,71.776,160,160,160c88.224,0,160-71.775,160-160
		C480,103.776,408.224,32,320,32z M342.336,235.28c1.809-13.616,6.448-30.704,17.023-41.28
		c11.057-11.04,27.664-15.328,39.648-16.992c-1.632,12.144-5.936,28.512-17.008,39.616
		C370.88,227.744,354.624,232.896,342.336,235.28z M338.721,318.464c0.287-17.151,5.424-42.144,10.447-51.937
		c16.721-3.375,39.008-10.832,55.44-27.279c29.695-29.68,27.407-78.032,27.296-80.064l-0.864-14.256l-14.24-0.848
		c0,0-1.408-0.096-3.92-0.096c-14.672,0-51.472,2.672-76.16,27.376c-12.256,12.256-19.008,28.096-22.768,42.656
		c-3.072-4.688-6.592-9.2-10.72-13.344c-24.704-24.704-61.504-27.376-76.192-27.376c-2.48,0-3.872,0.096-3.872,0.096l-14.32,0.848
		l-0.784,14.24c-0.112,2.048-2.432,50.368,27.28,80.081c22.24,22.256,55.6,26.607,73.328,27.264c-1.28,9.056-1.968,17.408-2,23.472
		C242.336,312.624,192,258.08,192,192c0-70.576,57.424-128,128-128s128,57.424,128,128C448,256.208,400.432,309.36,338.721,318.464z
		 M299.28,262.992c-15.216-1.969-31.36-7.12-41.28-17.04c-11.088-11.088-15.376-27.488-17.008-39.616
		c12,1.664,28.592,5.936,39.648,16.992C291.744,234.432,296.912,250.721,299.28,262.992z"/>
</g>
</svg>
