<?xml version="1.0" encoding="utf-8"?>
<!-- Generator: Adobe Illustrator 16.0.0, SVG Export Plug-In . SVG Version: 6.00 Build 0)  -->
<!DOCTYPE svg PUBLIC "-//W3C//DTD SVG 1.1//EN" "http://www.w3.org/Graphics/SVG/1.1/DTD/svg11.dtd">
<svg version="1.1" id="Layer_1" xmlns="http://www.w3.org/2000/svg" xmlns:xlink="http://www.w3.org/1999/xlink" x="0px" y="0px"
	 width="841.889px" height="595.281px" viewBox="0 0 841.889 595.281" enable-background="new 0 0 841.889 595.281"
	 xml:space="preserve">
<g>
	<g>
		<path fill="#C0E264" d="M375.427,167.742c-0.412-58.584-28.667-113.261-74.51-145.021c-39.062,27.062-65.358,70.759-72.54,119.334
			c33.271,27.109,53.353,69.456,53.353,114.4c0,13.139-1.727,26.047-4.982,38.422c7.375,7.565,15.455,14.438,24.172,20.477
			c18.366-12.727,33.897-29.135,45.963-47.993c-0.263-3.615-0.409-7.251-0.409-10.906
			C346.471,223.925,357.001,192.761,375.427,167.742z"/>
	</g>
</g>
<g>
	<g>
		<path fill="#C0E264" d="M206.56,160.237c-29.447,21.622-47.416,57.697-47.416,96.22c0,38.523,17.97,74.6,47.416,96.221
			c29.448-21.621,47.417-57.696,47.417-96.221C253.978,217.932,236.008,181.859,206.56,160.237z"/>
	</g>
</g>
<g>
	<g>
		<path fill="#C0E264" d="M589.136,169.038c0-59.076-28.351-114.323-74.527-146.315C475.813,49.6,449.61,92.891,442.22,141.074
			c34.004,27.063,54.588,69.888,54.588,115.384c0,13.521-1.835,26.806-5.28,39.515c7.081,7.132,14.789,13.64,23.082,19.385
			c19.006-13.167,34.98-30.279,47.213-49.968c-0.177-2.962-0.271-5.939-0.271-8.932c0-31.715,10.005-62.133,27.578-86.818
			C589.127,169.435,589.136,169.237,589.136,169.038z"/>
	</g>
</g>
<g>
	<g>
		<path fill="#C0E264" d="M421.639,160.237c-29.448,21.622-47.417,57.697-47.417,96.22c0,38.523,17.971,74.6,47.417,96.221
			c29.447-21.621,47.416-57.696,47.416-96.221S451.086,181.859,421.639,160.237z"/>
	</g>
</g>
<g>
	<g>
		<path fill="#C0E264" d="M636.716,160.237c-29.447,21.622-47.416,57.697-47.416,96.22c0,38.523,17.969,74.6,47.416,96.221
			c29.446-21.621,47.417-57.696,47.417-96.221S666.162,181.859,636.716,160.237z"/>
	</g>
</g>
<g>
	<g>
		<path fill="#C0E264" d="M697.771,469.88h-45.613c0.771-2.175,1.21-4.502,1.21-6.938v-88.088c-3.03,2.238-6.149,4.369-9.375,6.354
			c-2.229,1.374-4.754,2.062-7.273,2.062c-2.521,0-5.045-0.688-7.274-2.062c-6.271-3.858-12.177-8.225-17.701-13.009v94.742
			c0,2.438,0.439,4.765,1.21,6.938H531.44c0.771-2.175,1.21-4.502,1.21-6.938V336.594c-3.498,2.501-7.086,4.886-10.764,7.148
			c-2.229,1.375-4.754,2.062-7.274,2.062c-2.52,0-5.045-0.688-7.272-2.062c-5.65-3.479-11.089-7.251-16.314-11.279v130.479
			c0,2.438,0.439,4.765,1.21,6.938H438.47c0.769-2.175,1.211-4.503,1.211-6.938v-89.114c-3.461,2.623-7.046,5.095-10.766,7.383
			c-2.229,1.373-4.755,2.062-7.273,2.062c-2.521,0-5.045-0.688-7.274-2.062c-5.751-3.538-11.188-7.511-16.312-11.83v93.562
			c0,2.438,0.438,4.766,1.21,6.938h-81.512c0.769-2.175,1.21-4.502,1.21-6.938V336.594c-3.498,2.5-7.086,4.885-10.766,7.147
			c-2.229,1.375-4.754,2.062-7.273,2.062c-2.521,0-5.044-0.688-7.274-2.062c-5.648-3.479-11.088-7.251-16.312-11.279v130.479
			c0,2.438,0.438,4.765,1.211,6.938h-53.762c0.769-2.175,1.21-4.503,1.21-6.938v-90.184c-3.887,3.023-7.935,5.854-12.15,8.449
			c-2.229,1.374-4.754,2.062-7.273,2.062c-2.521,0-5.046-0.688-7.274-2.062c-5.229-3.22-10.212-6.781-14.926-10.65v92.386
			c0,2.438,0.438,4.765,1.21,6.938h-41.458c-11.495,0.002-20.813,9.318-20.813,20.813s9.318,20.813,20.813,20.813h553.65
			c11.495,0,20.813-9.318,20.813-20.813S709.266,469.88,697.771,469.88z"/>
	</g>
</g>
<g>
	<g>
		<path fill="#C0E264" d="M647.818,530.932H313.406c-11.494,0-20.812,9.317-20.812,20.812c0,11.495,9.318,20.814,20.812,20.814
			h334.411c11.495,0,20.813-9.319,20.813-20.814C668.63,540.25,659.313,530.932,647.818,530.932z"/>
	</g>
</g>
<g>
	<g>
		<path fill="#C0E264" d="M244.026,530.932h-31.915c-11.493,0-20.812,9.317-20.812,20.812c0,11.495,9.318,20.814,20.812,20.814
			h31.915c11.495,0,20.813-9.319,20.813-20.814C264.839,540.25,255.521,530.932,244.026,530.932z"/>
	</g>
</g>
</svg>
